<svg xmlns="http://www.w3.org/2000/svg" viewBox="0 0 256 256"><style>@media(prefers-color-scheme:dark){path{fill:white}}</style><path d="M128,2a126,126,0,0,0-13.4,251.29c-.08-2,2.59-8.41,2.59-8.41a9.63,9.63,0,0,1,1.57-.81,16.73,16.73,0,0,0,.76-2.1s-.46-3.23,1.48-4.33c1.58-.9,4-5.65,4.8-7.42a5.5,5.5,0,0,1-3.5-4.53l-.24-.37A23.67,23.67,0,0,1,118.5,213c-.73-1-.63-2.94-.84-3.55A17.64,17.64,0,0,0,116.1,207a8.78,8.78,0,0,1-2.54-.06c-3.23,2.45-5.3,1.81-5.3,1.81C102.05,206,98,195.13,98.42,192.93s-2.07-12-2.71-13.72-2.59-4.52-1.17-7.37,8.33-6.6,8.33-6.6c8.28,1.9,14.92,10.09,14.92,10.09-.2.42-.5,1-.78,1.44a14.33,14.33,0,0,0,2.16-5.06,4.46,4.46,0,0,1-.42-1.47l-.79.35c-.77-.86-1.29-4.74-1.29-4.74l1.21-.59v-5.11a3.2,3.2,0,0,1,.77-1.81l1-.51a15.89,15.89,0,0,1,.55-5.32c-2.21-.58-15.51-4.74-7.12-19.66l1,.31C96.51,127,90.57,109,90.42,107.45a8.19,8.19,0,0,1,.25-2.36c-19.59,8.33-40.59,17.72-52.41,24.44,0,0,2.33-8.28,5.69-11.39,2.15-2,21-10.43,46-20.74-.25-13.76,6.27-25.23,7.78-27.91s11.39-7.76,16.91-10.87A32.74,32.74,0,0,1,126.47,55a32.76,32.76,0,0,1,11.8,3.62c4.43,2.5,11.64,6.21,15.11,9a2.19,2.19,0,0,1,.55-.47,5,5,0,0,1,3.89-.43s0-.69,2.07-1.38a5.69,5.69,0,0,1,3.62-.08s.77-1.13,3.19-1.21a5.36,5.36,0,0,1,2.84,1.52l5.1-1.95a5.09,5.09,0,0,1,4.7,6.72c.68,1.88,1.51,5.06.7,7.64-.15.5-.33,1-.51,1.62.15.26.28.51.45.78a28.66,28.66,0,0,1,3.49,20.09l-1.64-.78c4.95,6.13,10.33,13.92,9.89,16.5-.64,3.7-12.46,14.79-36.9,23,3.34,5,10.26,18.16,2.82,34.12,0,0,2.07,6.55,6,8.88a39.09,39.09,0,0,1-5.63,3.38c-8.75,23-8.39,39.93-8.39,39.93a19.05,19.05,0,0,1-14.42,7.31l.9-1.55-.1,0a25.36,25.36,0,0,0-3.06,8.2l.83-.22s4,6.47,10.1,8.41a18,18,0,0,1,2.53,1,12.33,12.33,0,0,1,6.06,2.85A126,126,0,0,0,128,2Z"/><path d="M123.05,204.53a7.53,7.53,0,0,1,2.12,3.28c0,.08.12.17.18.25a8.4,8.4,0,0,1,1.36.61,28.92,28.92,0,0,1,2.12-3.71c1.55-1.94,4.14-10.73,4.14-10.73l-3.34-1.12a6.49,6.49,0,0,1-2.47,2.49,1.58,1.58,0,0,1,0,.31c-.91,4.27-5.56,6.73-5.56,6.73s-.08.17-.11.26A8.91,8.91,0,0,0,123.05,204.53Z"/><path d="M179.82,97.28c.71-3.08.15-8.49-1.44-13.56-.76,3.24-1.1,6.7.3,9L177,94.12C177.83,95,178.79,96.08,179.82,97.28Z"/><path d="M178.64,71.3a5.21,5.21,0,0,1-1,.66,12.31,12.31,0,0,0,.87,5.4A10.4,10.4,0,0,0,178.64,71.3Z"/><path d="M171.49,91a7,7,0,0,1,2.6.75A21.92,21.92,0,0,1,177.17,80a19.91,19.91,0,0,1-.28-7.71c-.49.21-1,.41-1.44.64a2.88,2.88,0,0,1,.31,1.65,109.57,109.57,0,0,1-4.11,10.26,11.76,11.76,0,0,1,.31,3.37A27.26,27.26,0,0,1,171.49,91Z"/></svg>
